<svg width="15" height="16" viewBox="0 0 15 16" fill="none" xmlns="http://www.w3.org/2000/svg">
<path d="M13.9455 2.55397L10.7023 0.121617C10.5969 0.0429714 10.4688 0 10.3375 0H3.85122C3.71987 0 3.59177 0.0429714 3.48637 0.121617L0.243235 2.55397C0.0908077 2.6691 0 2.84909 0 3.04044V6.45464C0 10.4842 2.53451 14.1417 6.31113 15.5581C6.56329 15.653 6.82841 15.7 7.09354 15.7C7.35867 15.7 7.62622 15.6522 7.88081 15.5565C11.6542 14.1417 14.1887 10.4834 14.1887 6.45383V3.03963C14.1887 2.84828 14.0987 2.6691 13.9455 2.55397ZM9.97831 5.82466L7.05949 9.0678C6.94354 9.1959 6.77977 9.26887 6.60707 9.26887C6.43437 9.26887 6.27059 9.1959 6.15465 9.0678L4.20877 6.90544C3.98419 6.65572 4.00446 6.27141 4.25418 6.04601C4.50471 5.82142 4.88821 5.84169 5.11361 6.09141L6.60707 7.75109L9.07347 5.00983C9.29887 4.76011 9.68237 4.74065 9.9329 4.96442C10.1826 5.18901 10.2029 5.57413 9.97831 5.82466Z" fill="#082F2F"/>
</svg>
