<svg width="16" height="14" viewBox="0 0 16 14" fill="none" xmlns="http://www.w3.org/2000/svg">
<path fill-rule="evenodd" clip-rule="evenodd" d="M11.6908 10.5916C11.6465 10.6346 11.587 10.6584 11.5253 10.6579C11.4635 10.6574 11.4044 10.6326 11.3608 10.5889C11.3171 10.5453 11.2924 10.4862 11.2919 10.4244C11.2915 10.3627 11.3153 10.3032 11.3583 10.2589L12.7263 8.89084C12.7796 8.85156 12.8199 8.79718 12.842 8.73473C12.864 8.67229 12.8668 8.60467 12.85 8.54062C12.8185 8.47508 12.773 8.41723 12.7168 8.37116C12.6606 8.32508 12.5949 8.2919 12.5245 8.27394C12.1129 8.14536 11.8026 8.36136 11.5081 8.61498L10.5024 9.61831C10.3391 9.77937 10.1522 9.91466 9.94821 10.0196C9.10418 10.4931 8.87264 11.2691 8.87264 12.1767V13.8416C8.87269 13.8862 8.89039 13.9289 8.92188 13.9604C8.95336 13.9919 8.99605 14.0097 9.0406 14.0098H11.5319C11.5765 14.0097 11.6192 13.9919 11.6507 13.9604C11.6822 13.9289 11.6999 13.8862 11.7 13.8416V13.0976C11.6973 12.8677 11.7417 12.6398 11.8305 12.4277C11.9193 12.2157 12.0506 12.0241 12.2163 11.8648L13.6083 10.4911C14.0089 10.1309 14.3092 9.67302 14.4801 9.16212L15.9371 5.28795C16.0021 5.12529 16.0717 4.76606 15.8393 4.70354C15.4225 4.60305 15.0359 5.29431 14.8987 5.59172L13.2954 8.8723C13.2444 9.0058 13.1635 9.12589 13.0591 9.2234L11.6908 10.5916ZM4.4916 8.61498L5.49687 9.61831C5.66022 9.77937 5.84709 9.91466 6.05108 10.0196C6.89511 10.4931 7.12665 11.2691 7.12665 12.1767V13.8416C7.1266 13.8862 7.1089 13.9289 7.07742 13.9604C7.04593 13.9919 7.00324 14.0097 6.95869 14.0098H4.4674C4.42284 14.0097 4.38012 13.9919 4.34861 13.9604C4.3171 13.9289 4.29936 13.8862 4.29926 13.8416V13.0976C4.30199 12.8677 4.2576 12.6398 4.16881 12.4277C4.08002 12.2157 3.94873 12.0241 3.78303 11.8648L2.39097 10.4911C1.99041 10.1309 1.69006 9.67302 1.51921 9.16212L0.062865 5.28742C-0.00212829 5.12476 -0.0717136 4.76553 0.160708 4.70301C0.577513 4.60252 0.964118 5.29378 1.10135 5.59119L2.70393 8.8723C2.75493 9.0058 2.83575 9.12589 2.94023 9.2234L4.30845 10.5916C4.35281 10.6346 4.41228 10.6584 4.47403 10.6579C4.53578 10.6574 4.59485 10.6326 4.63851 10.5889C4.68216 10.5453 4.70689 10.4862 4.70736 10.4244C4.70783 10.3627 4.684 10.3032 4.64101 10.2589L3.27297 8.89084C3.21966 8.85156 3.17937 8.79718 3.15733 8.73473C3.13529 8.67229 3.13251 8.60467 3.14934 8.54062C3.18081 8.47508 3.22626 8.41723 3.2825 8.37116C3.33873 8.32508 3.40439 8.2919 3.47484 8.27394C3.88635 8.14536 4.19665 8.36136 4.49124 8.61498H4.4916ZM8.14624 1.46924C8.68455 0.489746 9.26419 0 10.3334 0C10.9524 0.000234043 11.546 0.246242 11.9837 0.683955C12.4214 1.12167 12.6675 1.71527 12.6677 2.33429C12.6677 4.59033 10.4874 6.08571 8.23472 8.29054C8.17198 8.35208 8.08761 8.38655 7.99973 8.38655C7.91186 8.38655 7.82749 8.35208 7.76475 8.29054C5.51136 6.08571 3.33178 4.59033 3.33178 2.33429C3.33202 1.71551 3.57783 1.12213 4.01524 0.684454C4.45264 0.246782 5.04588 0.000608341 5.66465 0C6.73387 0 7.31333 0.489746 7.85182 1.46924C7.86627 1.49566 7.88756 1.5177 7.91346 1.53306C7.93936 1.54841 7.96892 1.55652 7.99903 1.55652C8.02914 1.55652 8.05869 1.54841 8.0846 1.53306C8.1105 1.5177 8.13179 1.49566 8.14624 1.46924Z" fill="#082F2F"/>
</svg>
