<svg width="16" height="13" viewBox="0 0 16 13" fill="none" xmlns="http://www.w3.org/2000/svg">
<path d="M11.727 0C9.32105 0 7.38623 1.95165 7.38623 4.34073C7.38623 4.60993 7.60495 4.82865 7.87414 4.82865C8.14333 4.82865 8.36205 4.60993 8.36205 4.34073C8.36205 2.47321 9.87626 0.958999 11.7438 0.958999C13.7627 0.958999 15.0246 2.18719 15.0246 4.15566C15.0246 4.94642 14.5535 5.56893 14.0656 6.24191C13.5777 6.89807 13.0729 7.57105 12.972 8.44592C12.7701 10.1116 12.1308 11.895 10.9362 11.895C9.74167 11.895 9.20328 10.9191 9.20328 9.94331C9.20328 9.67412 8.98456 9.4554 8.71537 9.4554C8.44618 9.4554 8.22746 9.67412 8.22746 9.94331C8.22746 11.3902 9.15281 12.8708 10.9362 12.8708C12.5009 12.8708 13.6281 11.2556 13.931 8.5637C13.9983 7.94119 14.4021 7.4028 14.8395 6.81394C15.3779 6.09049 16.0004 5.26608 16.0004 4.15566C15.9836 1.68246 14.2675 0 11.727 0Z" fill="#082F2F"/>
<path d="M11.7434 2.82668C12.4164 2.82668 13.1062 3.14634 13.1062 3.85297C13.1062 4.12217 13.3249 4.34088 13.5941 4.34088C13.8633 4.34088 14.082 4.12217 14.082 3.85297C14.082 2.69208 13.1062 1.86768 11.7434 1.86768C11.0536 1.86768 10.347 2.20417 9.82543 2.75938C9.37117 3.26411 9.15245 3.85297 9.20293 4.44183C9.2534 4.91292 9.52259 5.33353 9.82543 5.77097C10.347 6.5449 10.347 7.52072 10.061 8.16006C9.60672 9.16953 10.7508 9.74156 11.4574 9.25365C11.9958 8.88351 11.7603 7.60485 11.4238 6.66267C11.3565 6.44395 11.2555 6.25888 11.1546 6.05699C11.1377 6.02334 11.1209 5.97287 11.0873 5.93922C11.0873 5.93922 11.0873 5.93922 11.0873 5.92239C10.9359 5.67002 10.7844 5.43448 10.6498 5.23259C10.4143 4.89609 10.1956 4.57643 10.1619 4.34088C10.1283 4.03804 10.2629 3.70155 10.5321 3.39871C10.8686 3.04539 11.3228 2.82668 11.7434 2.82668Z" fill="#082F2F"/>
<path d="M8.76559 7.25177C8.76559 6.71338 8.32815 6.27594 7.78976 6.27594C7.43645 6.27594 7.13361 6.47784 6.96536 6.76385H5.5521C5.33338 6.76385 5.13149 6.91527 5.08101 7.13399L4.69405 8.63138L3.54998 4.81221C3.49951 4.62714 3.31444 4.47572 3.11254 4.47572C2.91065 4.45889 2.72558 4.57666 2.64145 4.76173L1.7161 6.78068H0.487912C0.218719 6.78068 0 6.9994 0 7.26859C0 7.53778 0.218719 7.7565 0.487912 7.7565H2.03577C2.22084 7.7565 2.40591 7.63873 2.47321 7.47049L2.99477 6.34324L4.27343 10.5999C4.34073 10.8017 4.5258 10.9363 4.74452 10.9363C4.74452 10.9363 4.74452 10.9363 4.76135 10.9363C4.98007 10.9363 5.16514 10.7849 5.21561 10.5662L5.93906 7.73968H6.96536C7.13361 8.0257 7.43645 8.24441 7.80659 8.24441C8.32815 8.22759 8.76559 7.79015 8.76559 7.25177Z" fill="#082F2F"/>
</svg>
