<svg width="30" height="23" viewBox="0 0 30 23" fill="none" xmlns="http://www.w3.org/2000/svg">
<path fill-rule="evenodd" clip-rule="evenodd" d="M9.76626 16.3012C9.77489 16.3739 9.78425 16.4757 9.78137 16.5566C9.77273 16.8016 9.73064 17.0865 9.67092 17.3956C9.37268 18.9375 8.66898 20.9882 8.64308 21.9998C8.63265 22.4027 8.95139 22.738 9.35397 22.7481C9.75654 22.7586 10.0918 22.4402 10.1023 22.0372C10.1314 20.8979 11.0762 18.399 11.2204 16.9013C11.2733 16.3544 11.2201 15.9051 11.083 15.6036C10.9179 15.2406 10.6488 15.0125 10.2768 14.9226C9.05465 14.6276 8.02393 14.379 8.02393 14.379C7.63215 14.2844 7.23749 14.5254 7.14323 14.9172C7.04861 15.3086 7.28965 15.7033 7.68143 15.7979L9.76626 16.3012ZM12.8228 13.6382V20.6172C12.8228 21.1824 13.0473 21.7246 13.447 22.1243C13.8467 22.524 14.3888 22.7485 14.9544 22.7485C15.4606 22.7485 15.9473 22.5538 16.3139 22.2049L16.347 22.1732C16.4632 22.0624 16.6176 22.0009 16.7784 22.0009H24.1208C24.21 22.0009 24.2945 22.0405 24.3514 22.1095L24.3517 22.1099C24.686 22.5143 25.1831 22.7485 25.7077 22.7485C25.7354 22.7485 25.7642 22.7485 25.7929 22.7485C26.3499 22.7485 26.8841 22.5272 27.278 22.1333C27.6716 21.7397 27.8929 21.2055 27.8929 20.6485V13.6382H29.27C29.673 13.6382 30 13.3112 30 12.9086C30 12.5057 29.673 12.1787 29.27 12.1787H11.446C11.0431 12.1787 10.716 12.5057 10.716 12.9086C10.716 13.3112 11.0431 13.6382 11.446 13.6382H12.8228ZM26.4333 13.6382H14.2827V20.6172C14.2827 20.7953 14.3532 20.9662 14.4791 21.0921C14.6054 21.2181 14.7759 21.2889 14.9544 21.2889C15.0857 21.2889 15.2123 21.2382 15.3073 21.1475L15.3404 21.1162C15.7279 20.7471 16.2431 20.541 16.7784 20.541C18.311 20.541 22.6609 20.541 24.1208 20.541C24.6453 20.541 25.1429 20.7752 25.4767 21.1799L25.4771 21.1803C25.5339 21.249 25.6185 21.2889 25.7077 21.2889H25.7929C25.9627 21.2889 26.1257 21.2213 26.2459 21.1011C26.3657 20.9813 26.4333 20.8184 26.4333 20.6485V13.6382ZM19.6281 16.3595H18.4603C18.0573 16.3595 17.7303 16.6865 17.7303 17.0894C17.7303 17.492 18.0573 17.8194 18.4603 17.8194H19.6281V18.9872C19.6281 19.3897 19.9551 19.7168 20.358 19.7168C20.7606 19.7168 21.088 19.3897 21.088 18.9872V17.8194H22.2558C22.6583 17.8194 22.9854 17.492 22.9854 17.0894C22.9854 16.6865 22.6583 16.3595 22.2558 16.3595H21.088V15.1917C21.088 14.7887 20.7606 14.4617 20.358 14.4617C19.9551 14.4617 19.6281 14.7887 19.6281 15.1917V16.3595ZM9.0658 11.9409L6.29599 10.3273C6.12043 10.2252 5.99235 10.0572 5.94019 9.86072C5.93983 9.86 5.93947 9.85892 5.93911 9.85784C5.76966 9.23186 5.42501 8.29719 4.83032 7.60141C4.14245 6.79591 3.15347 6.27281 1.75471 6.67575C1.11829 6.85886 0.694493 7.17869 0.416757 7.57335C0.0285736 8.12559 -0.0753978 8.86202 0.0508788 9.7053C0.289401 11.2983 1.39999 13.3644 1.70578 14.8172C2.30695 17.673 4.93825 17.7985 6.59172 17.7985C6.99465 17.7985 7.32167 17.4715 7.32167 17.0686C7.32167 16.6656 6.99465 16.3386 6.59172 16.3386C6.08265 16.3386 5.44407 16.344 4.8314 16.2033C4.07554 16.0299 3.36249 15.6011 3.1344 14.5164C2.83328 13.0867 1.72917 11.0569 1.4946 9.48909C1.43129 9.06708 1.41654 8.68934 1.61081 8.41304C1.72161 8.25582 1.90473 8.15149 2.15837 8.07846C3.03295 7.82663 3.58842 8.29755 3.94602 8.85555C4.24679 9.32432 4.42703 9.85892 4.53028 10.2396C4.68102 10.8058 5.05193 11.2922 5.56136 11.5887L8.33117 13.2022C8.67942 13.4047 9.1266 13.2867 9.32915 12.9388C9.53205 12.5906 9.41405 12.1434 9.0658 11.9409ZM25.3458 11.3613L25.3832 11.3624L25.4145 11.3591C25.5544 11.3415 26.1131 11.2336 26.1131 10.6321C26.1131 8.11767 24.0747 6.0789 21.56 6.0789C20.7725 6.0789 19.9432 6.0789 19.1561 6.0789C16.6413 6.0789 14.6029 8.11767 14.6029 10.6321L14.6043 10.6774C14.6151 10.9119 14.7151 11.0666 14.8375 11.1681C14.9673 11.2886 15.1415 11.3624 15.3325 11.3624C15.3325 11.3624 16.0625 11.3196 16.0625 10.6321C16.0625 8.92354 17.4475 7.53882 19.1561 7.53882H21.56C23.2631 7.53882 24.6449 8.91527 24.6532 10.6166C24.6532 10.5608 24.6583 10.5194 24.668 10.4903C24.6583 10.5346 24.6536 10.5828 24.6536 10.6324C24.6536 11.0228 24.9605 11.3419 25.3458 11.3613ZM20.358 0C18.9057 0 17.7267 1.17894 17.7267 2.63094C17.7267 4.0833 18.9057 5.26224 20.358 5.26224C21.81 5.26224 22.989 4.0833 22.989 2.63094C22.989 1.17894 21.81 0 20.358 0ZM3.97229 0C2.51993 0 1.34099 1.17894 1.34099 2.63094C1.34099 4.0833 2.51993 5.26224 3.97229 5.26224C5.42429 5.26224 6.60323 4.0833 6.60323 2.63094C6.60323 1.17894 5.42429 0 3.97229 0ZM20.358 1.45955C21.0045 1.45955 21.5294 1.98445 21.5294 2.63094C21.5294 3.27743 21.0045 3.80233 20.358 3.80233C19.7115 3.80233 19.1866 3.27743 19.1866 2.63094C19.1866 1.98445 19.7115 1.45955 20.358 1.45955ZM3.97229 1.45955C4.61878 1.45955 5.14367 1.98445 5.14367 2.63094C5.14367 3.27743 4.61878 3.80233 3.97229 3.80233C3.32579 3.80233 2.8009 3.27743 2.8009 2.63094C2.8009 1.98445 3.32579 1.45955 3.97229 1.45955Z" fill="#082F2F"/>
</svg>
