<svg width="30" height="29" viewBox="0 0 30 29" fill="none" xmlns="http://www.w3.org/2000/svg">
<path d="M25.2962 1.02833C22.5901 -0.535212 18.5468 -0.655453 14.9894 3.40371C12.1297 0.162699 8.50735 -0.850116 5.21732 0.738747C1.27208 2.64252 -0.835666 7.53717 0.355809 12.1236V12.122C0.466587 12.5556 0.906538 12.8183 1.34014 12.7091C1.77533 12.5999 2.03805 12.1584 1.92883 11.7248C1.42717 9.91278 1.55377 7.98527 2.28965 6.25721C3.02552 4.52752 4.32634 3.09848 5.9801 2.20433C8.84762 0.818028 11.9116 1.90523 14.399 5.17787H14.3974C14.5525 5.37885 14.7931 5.49596 15.0463 5.49438C15.2963 5.49279 15.5337 5.37569 15.6856 5.17787C18.2952 1.75804 21.6013 0.729589 24.5413 2.43063C26.2504 3.53525 27.5085 5.21587 28.0877 7.16574C28.6669 9.11699 28.5308 11.2107 27.7016 13.0701C25.0682 19.2276 19.6072 23.6839 14.9891 26.925C12.0678 24.9468 9.37448 22.6505 6.95952 20.0791C6.65726 19.7468 6.14453 19.7231 5.81379 20.0253C5.48146 20.3276 5.45772 20.8419 5.75998 21.1726C8.3933 23.9658 11.3353 26.4535 14.5273 28.5869C14.8058 28.7783 15.173 28.7783 15.4515 28.5869C20.313 25.1844 26.317 20.4195 29.137 13.6936C30.1166 11.4717 30.267 8.97309 29.5628 6.64969C28.8585 4.32654 27.3438 2.33243 25.2962 1.02833Z" fill="#082F2F"/>
<path d="M0.810176 15.9865H3.09533C3.36119 15.9849 3.60964 15.8504 3.75998 15.6305L4.67625 14.3012L6.63698 17.9473H6.6354C6.77783 18.2084 7.05158 18.3698 7.34911 18.3683C7.6577 18.354 7.9299 18.1657 8.05334 17.8824L10.9383 11.3275L11.489 12.5587C12.9798 15.9864 12.9798 15.9864 13.5067 15.9864H17.0722C17.4488 16.7539 18.305 17.1607 19.139 16.9676C19.973 16.7745 20.5616 16.0323 20.5616 15.1762C20.5616 14.32 19.973 13.5778 19.139 13.3848C18.305 13.1917 17.4488 13.5984 17.0722 14.3659H14.0337L11.6441 8.99315H11.6426C11.5144 8.70038 11.2264 8.51048 10.9067 8.50732C10.5838 8.51049 10.2943 8.70514 10.1692 9.00267L7.27639 15.7031L5.46916 12.3402C5.33465 12.0949 5.08461 11.9351 4.80451 11.9192C4.52282 11.9034 4.2522 12.0347 4.09238 12.2674L2.66496 14.3658H0.810252C0.362385 14.3658 0 14.7282 0 15.176C0 15.6239 0.362322 15.9865 0.810176 15.9865Z" fill="#082F2F"/>
</svg>
