<svg width="16" height="16" viewBox="0 0 16 16" fill="none" xmlns="http://www.w3.org/2000/svg">
<path d="M5.77639 13.5068H5.17007C5.10307 13.5068 5.03881 13.4802 4.99143 13.4328C4.94406 13.3854 4.91744 13.3212 4.91744 13.2542V12.6479C4.91744 12.5496 4.8784 12.4554 4.80892 12.3859C4.73943 12.3164 4.64518 12.2773 4.54691 12.2773H4.05849C3.96022 12.2773 3.86598 12.3164 3.79649 12.3859C3.72701 12.4554 3.68797 12.5496 3.68797 12.6479V13.271C3.68797 13.338 3.66135 13.4023 3.61397 13.4497C3.5666 13.497 3.50234 13.5237 3.43534 13.5237H2.82902C2.73075 13.5237 2.63651 13.5627 2.56702 13.6322C2.49753 13.7017 2.4585 13.7959 2.4585 13.8942V14.3826C2.46283 14.4779 2.50378 14.5679 2.5728 14.6338C2.64182 14.6997 2.7336 14.7364 2.82902 14.7363H3.45218C3.51918 14.7363 3.58344 14.7629 3.63082 14.8103C3.67819 14.8577 3.70481 14.9219 3.70481 14.9889V15.6121C3.70481 15.7103 3.74385 15.8046 3.81333 15.8741C3.88282 15.9436 3.97707 15.9826 4.07534 15.9826H4.56376C4.66203 15.9826 4.75627 15.9436 4.82576 15.8741C4.89524 15.8046 4.93428 15.7103 4.93428 15.6121V14.9889C4.93414 14.9247 4.95843 14.8629 5.00223 14.816C5.04602 14.7691 5.10603 14.7406 5.17007 14.7363H5.79323C5.88855 14.7319 5.97852 14.691 6.04441 14.622C6.11029 14.553 6.14701 14.4612 6.14691 14.3658V13.8773C6.14691 13.7791 6.10787 13.6848 6.03839 13.6153C5.9689 13.5459 5.87466 13.5068 5.77639 13.5068Z" fill="#082F2F"/>
<path d="M8.00054 0C7.14779 0 6.31419 0.252869 5.60516 0.726631C4.89612 1.20039 4.3435 1.87377 4.01717 2.6616C3.69083 3.44944 3.60545 4.31635 3.77181 5.15272C3.93818 5.98908 4.34881 6.75733 4.9518 7.36031C5.55478 7.9633 6.32303 8.37393 7.15939 8.5403C7.99576 8.70666 8.86267 8.62128 9.65051 8.29494C10.4383 7.96861 11.1117 7.41599 11.5855 6.70695C12.0592 5.99792 12.3121 5.16432 12.3121 4.31157C12.3121 3.16807 11.8579 2.07141 11.0493 1.26283C10.2407 0.454253 9.14404 0 8.00054 0ZM8.00054 7.37683C7.39024 7.37682 6.79369 7.19562 6.28648 6.85621C5.77927 6.51679 5.38425 6.03444 5.15147 5.47027C4.9187 4.90611 4.85866 4.28554 4.97895 3.68722C5.09925 3.0889 5.39446 2.53975 5.82719 2.10939C6.25992 1.67903 6.81067 1.38683 7.40964 1.26981C8.00862 1.1528 8.62885 1.21624 9.19172 1.4521C9.7546 1.68796 10.2348 2.08562 10.5714 2.59468C10.9081 3.10374 11.086 3.70128 11.0826 4.31157C11.0782 5.12607 10.7515 5.9057 10.174 6.48007C9.59646 7.05443 8.81505 7.37684 8.00054 7.37683Z" fill="#082F2F"/>
<path d="M11.6884 8.85898H10.4758C10.3169 8.85637 10.1616 8.90607 10.0338 9.00042C9.906 9.09476 9.81275 9.22852 9.76843 9.38109C9.65073 9.75802 9.41568 10.0875 9.09756 10.3214C8.77943 10.5553 8.39489 10.6815 8.00001 10.6815C7.60514 10.6815 7.22059 10.5553 6.90247 10.3214C6.58435 10.0875 6.34929 9.75802 6.23159 9.38109C6.18728 9.22852 6.09403 9.09476 5.9662 9.00042C5.83838 8.90607 5.68308 8.85637 5.52423 8.85898H4.3116C3.1681 8.85898 2.07143 9.31324 1.26285 10.1218C0.454278 10.9304 2.41853e-05 12.0271 2.41853e-05 13.1706V15.36C-0.00133233 15.5161 0.0544168 15.6674 0.156779 15.7852C0.25914 15.9031 0.401055 15.9795 0.555813 16C0.640394 16.0069 0.725494 15.9965 0.805896 15.9693C0.886298 15.9422 0.960306 15.8989 1.02338 15.8421C1.08646 15.7854 1.13728 15.7163 1.17272 15.6392C1.20816 15.5621 1.22748 15.4785 1.2295 15.3937V13.1706C1.2295 12.3531 1.55422 11.5692 2.13222 10.9912C2.71023 10.4132 3.49417 10.0885 4.3116 10.0885H4.9516C5.01817 10.0903 5.08303 10.11 5.13935 10.1456C5.19566 10.1811 5.24134 10.2312 5.27159 10.2906C5.5903 10.8929 6.09967 11.3727 6.72001 11.6548C6.91507 11.7422 7.08078 11.8841 7.19728 12.0633C7.31378 12.2425 7.37613 12.4515 7.37685 12.6653V13.12C7.37685 13.656 7.58979 14.1701 7.96881 14.5491C8.34783 14.9281 8.86189 15.1411 9.3979 15.1411H9.80211C9.86255 15.1423 9.92177 15.1583 9.97461 15.1876C10.0275 15.217 10.0723 15.2588 10.1053 15.3095C10.2854 15.5747 10.5458 15.7752 10.8483 15.8815C11.1508 15.9878 11.4794 15.9944 11.7858 15.9002C12.0923 15.8059 12.3604 15.6159 12.5509 15.3581C12.7415 15.1002 12.8443 14.788 12.8443 14.4674C12.8443 14.1468 12.7415 13.8346 12.5509 13.5767C12.3604 13.3189 12.0923 13.1289 11.7858 13.0346C11.4794 12.9404 11.1508 12.9469 10.8483 13.0533C10.5458 13.1596 10.2854 13.3601 10.1053 13.6253C10.0723 13.676 10.0275 13.7178 9.97461 13.7472C9.92177 13.7765 9.86255 13.7925 9.80211 13.7937H9.38106C9.20239 13.7937 9.03104 13.7227 8.9047 13.5964C8.77836 13.4701 8.70738 13.2987 8.70738 13.12V12.6316C8.70477 12.4257 8.76027 12.2233 8.86752 12.0475C8.97477 11.8717 9.12941 11.7298 9.31369 11.6379C9.91264 11.3511 10.4029 10.8786 10.7116 10.2906C10.7418 10.2312 10.7875 10.1811 10.8438 10.1456C10.9001 10.11 10.965 10.0903 11.0316 10.0885H11.6716C12.0777 10.0862 12.4803 10.1643 12.8562 10.3182C13.2321 10.4721 13.5739 10.6988 13.8619 10.9852C14.1498 11.2716 14.3784 11.6121 14.5343 11.9872C14.6903 12.3622 14.7705 12.7644 14.7705 13.1706V15.36C14.7692 15.5161 14.8249 15.6674 14.9273 15.7852C15.0296 15.9031 15.1716 15.9795 15.3263 16C15.4109 16.0069 15.496 15.9965 15.5764 15.9693C15.6568 15.9422 15.7308 15.8989 15.7939 15.8421C15.857 15.7854 15.9078 15.7163 15.9432 15.6392C15.9787 15.5621 15.998 15.4785 16 15.3937V13.1706C16 12.0271 15.5457 10.9304 14.7372 10.1218C13.9286 9.31324 12.8319 8.85898 11.6884 8.85898Z" fill="#082F2F"/>
</svg>
