<svg width="30" height="30" viewBox="0 0 30 30" fill="none" xmlns="http://www.w3.org/2000/svg">
<path d="M8.53066 22.9458H2.46314C2.00828 22.9458 1.67283 22.8237 1.43935 22.5741C0.985834 22.0924 1.03145 21.2753 1.03145 21.2685C1.03279 21.2565 1.03279 21.2444 1.03279 21.2323V8.92003C1.03279 8.63557 0.802005 8.40479 0.517549 8.40479C0.233089 8.40479 0.00230454 8.63557 0.00230454 8.92003V21.2203C-0.00574632 21.3974 -0.0298981 22.5111 0.682599 23.2746C1.11733 23.7415 1.71711 23.9777 2.46448 23.9777H2.51681V28.6149C2.51681 28.8993 2.7476 29.1301 3.03206 29.1301H4.81126C5.09572 29.1301 5.32651 28.8993 5.32651 28.6149V23.9777H8.53201C8.81647 23.9777 9.04726 23.7469 9.04726 23.4624C9.04726 23.1766 8.81511 22.9458 8.53066 22.9458ZM4.29466 28.0982H3.54594V23.9762H4.29466V28.0982Z" fill="#082F2F"/>
<path d="M29.9976 21.2189V8.92003C29.9976 8.63557 29.7668 8.40479 29.4823 8.40479C29.1979 8.40479 28.9671 8.63557 28.9671 8.92003L28.9684 21.2684C28.9698 21.2764 29.0141 22.0935 28.5605 22.5753C28.3257 22.8248 27.9903 22.9469 27.5367 22.9469L26.9678 22.9456H21.4664C21.182 22.9456 20.9512 23.1764 20.9512 23.4608C20.9512 23.7453 21.182 23.9761 21.4664 23.9761H24.6719V28.6133C24.6719 28.8977 24.9027 29.1285 25.1872 29.1285H26.9664C27.2508 29.1285 27.4816 28.8977 27.4816 28.6133V23.9761H27.5339C28.2813 23.9761 28.8811 23.7399 29.3158 23.273C30.0296 22.5095 30.0056 21.396 29.9976 21.2189ZM26.4527 28.0981H25.704V23.9761H26.4527V28.0981Z" fill="#082F2F"/>
<path d="M23.8174 6.52643C25.6167 6.52643 27.0806 5.06255 27.0806 3.26321C27.0806 1.46388 25.6167 0 23.8174 0C22.0181 0 20.5542 1.46388 20.5542 3.26321C20.5542 5.06255 22.0181 6.52643 23.8174 6.52643ZM23.8174 1.03049C25.0492 1.03049 26.0501 2.03147 26.0501 3.26321C26.0501 4.49496 25.0492 5.49594 23.8174 5.49594C22.5857 5.49594 21.5847 4.49496 21.5847 3.26321C21.5847 2.03147 22.5857 1.03049 23.8174 1.03049Z" fill="#082F2F"/>
<path d="M27.1427 20.7612C27.9155 19.9132 27.8672 18.6868 27.8525 18.4802L27.8538 9.87528C27.8538 8.26515 26.5442 6.95557 24.9341 6.95557H24.7194C23.1093 6.95557 21.7997 8.26515 21.7997 9.87528V17.2254L18.1002 17.2804C18.0855 17.2804 18.0694 17.2818 18.0546 17.2831C17.275 17.3636 15.8018 17.9527 15.8018 19.6111V27.7502C15.8018 28.8102 16.6645 29.6717 17.7232 29.6717C18.7832 29.6717 19.6447 28.8089 19.6447 27.7502L19.646 21.5539H25.1419C25.9913 21.5539 26.6635 21.2869 27.1425 20.7609L27.1427 20.7612ZM19.131 20.5237C18.8465 20.5237 18.6157 20.7545 18.6157 21.039V27.7519C18.6157 28.243 18.2158 28.6429 17.7248 28.6429C17.2337 28.6429 16.8338 28.243 16.8338 27.7519L16.8325 19.6114C16.8325 18.5313 17.9421 18.3367 18.142 18.3099L22.3217 18.2468C22.6035 18.2428 22.8289 18.0133 22.8289 17.7316L22.8302 9.87545C22.8302 8.83425 23.6783 7.98623 24.7195 7.98623H24.9342C25.9754 7.98623 26.8234 8.83425 26.8234 9.87545V18.5003C26.8234 18.5164 26.8247 18.5325 26.8261 18.5486C26.8274 18.558 26.8985 19.5013 26.3819 20.0688C26.1028 20.3748 25.6976 20.5237 25.1421 20.5237L19.131 20.5237Z" fill="#082F2F"/>
<path d="M6.10501 6.52643C7.90434 6.52643 9.36822 5.06255 9.36822 3.26321C9.36822 1.46388 7.90434 0 6.10501 0C4.30567 0 2.8418 1.46388 2.8418 3.26321C2.8418 5.06255 4.30567 6.52643 6.10501 6.52643ZM6.10501 1.03049C7.33675 1.03049 8.33773 2.03147 8.33773 3.26321C8.33773 4.49496 7.33675 5.49594 6.10501 5.49594C4.87327 5.49594 3.87228 4.49496 3.87228 3.26321C3.87228 2.03147 4.87327 1.03049 6.10501 1.03049Z" fill="#082F2F"/>
<path d="M11.8666 17.2821C11.8518 17.2807 11.8371 17.2794 11.821 17.2794L8.12154 17.2244L8.12288 9.87528C8.12288 8.26514 6.8133 6.95557 5.20316 6.95557H4.98848C3.37834 6.95557 2.06876 8.26514 2.06876 9.87528V18.4816C2.05534 18.6882 2.0057 19.9146 2.77856 20.7626C3.25756 21.2886 3.93116 21.5543 4.77915 21.5543H10.2751V27.7519C10.2751 28.8119 11.1378 29.6734 12.1965 29.6734C13.2565 29.6734 14.118 28.8106 14.118 27.7519L14.1193 19.6114C14.1193 17.953 12.6462 17.3626 11.8666 17.2821ZM13.089 27.7508C13.089 28.2419 12.6891 28.6418 12.198 28.6418C11.7069 28.6418 11.3071 28.2419 11.3071 27.7508V21.0392C11.3071 20.7548 11.0763 20.524 10.7918 20.524H4.78063C4.2278 20.524 3.82392 20.3764 3.54483 20.0732C3.02289 19.5043 3.09667 18.5569 3.09667 18.5489C3.09801 18.5328 3.09936 18.5167 3.09936 18.5006V9.87575C3.09936 8.83454 3.94738 7.98652 4.98858 7.98652H5.20327C6.24447 7.98652 7.0925 8.83454 7.0925 9.87575V17.7332C7.0925 18.015 7.31792 18.2444 7.5997 18.2485L11.7807 18.3115C11.9498 18.333 13.089 18.5208 13.089 19.6131L13.089 27.7508Z" fill="#082F2F"/>
</svg>
