<svg width="16" height="15" viewBox="0 0 16 15" fill="none" xmlns="http://www.w3.org/2000/svg">
<path fill-rule="evenodd" clip-rule="evenodd" d="M7.99955 0.00065642C7.86145 -0.00631807 7.72685 0.0425047 7.6257 0.136661C7.52457 0.230817 7.46599 0.362633 7.46389 0.500741V1.46882V1.46812C7.81122 1.34816 8.18786 1.34816 8.53519 1.46812V0.495169C8.5317 0.35777 8.47242 0.228041 8.37198 0.135285C8.27085 0.0418252 8.13694 -0.00631771 7.99955 0.00065642ZM11.685 12.838C11.6745 12.2654 11.2079 11.8065 10.6353 11.8043H5.364C4.79139 11.8064 4.32479 12.2654 4.31433 12.838H11.685ZM3.09302 14.9988H12.9132C13.0053 14.9988 13.0792 14.9242 13.0792 14.8328V14.1186C13.0736 13.6297 12.6754 13.2363 12.1865 13.2363H3.8093C3.32038 13.2363 2.92213 13.6297 2.91655 14.1186V14.8328C2.91725 14.9249 2.99188 14.9988 3.08394 14.9988H3.09302ZM7.99955 1.77365C7.50366 1.77365 7.05729 2.07217 6.86758 2.5304C6.67857 2.98793 6.78319 3.5152 7.13401 3.86534C7.48483 4.21545 8.01212 4.32008 8.46965 4.12968C8.92718 3.93927 9.225 3.4922 9.22431 2.997C9.22431 2.67198 9.09528 2.36092 8.86582 2.13145C8.63565 1.90197 8.32458 1.77295 7.99955 1.77365ZM6.46585 2.46274H3.53585C3.70813 2.79892 3.70813 3.19787 3.53585 3.53404H6.46585C6.34588 3.1874 6.34588 2.81007 6.46585 2.46274ZM7.4639 4.5307V11.4048H8.5352V4.5307C8.18856 4.65275 7.81054 4.65275 7.4639 4.5307ZM9.53114 3.53054H12.4633C12.291 3.19437 12.291 2.79542 12.4633 2.45924H9.53329C9.65604 2.80588 9.65604 3.1839 9.53329 3.53054H9.53114ZM0.000364327 7.26757C-0.00172809 7.2341 0.00524644 7.19992 0.0198941 7.16923L1.88984 3.47201C1.70361 3.23419 1.67364 2.90987 1.81242 2.64205C1.95052 2.37422 2.2323 2.21171 2.5336 2.22637C2.8349 2.24031 3.10064 2.42932 3.21293 2.709C3.32522 2.98868 3.26454 3.30812 3.0574 3.52711L4.8911 7.15666C4.90993 7.18735 4.91969 7.22292 4.91969 7.25849C4.88622 8.59133 3.79747 9.65498 2.46464 9.65784C1.13109 9.65993 0.0387524 8.60046 0.000364327 7.26757ZM2.21473 3.7148L0.523389 7.05903H2.25867L2.25937 3.73069L2.21473 3.7148ZM2.66111 3.75037V7.05907H4.39498L2.7169 3.73644L2.66111 3.75037ZM11.0793 7.36814C11.0773 7.33396 11.0849 7.29979 11.101 7.26979L12.9757 3.56133C12.7491 3.3493 12.6709 3.0222 12.7783 2.73136C12.8851 2.43982 13.1557 2.24174 13.466 2.2271C13.7757 2.21245 14.0645 2.38473 14.1977 2.6644C14.3316 2.94478 14.2849 3.27747 14.0791 3.50903L15.9721 7.25856H15.9714C15.9902 7.28995 16 7.32622 16 7.36249C16 8.72114 14.8987 9.82307 13.5401 9.82307C12.1808 9.82307 11.0795 8.72108 11.0795 7.36249L11.0793 7.36814ZM13.7415 3.73091V7.15888H15.4768L13.7429 3.73091H13.7415ZM13.3398 3.75044H13.3293L11.6045 7.16109H13.3398L13.3398 3.75044Z" fill="#082F2F"/>
</svg>
