<svg width="30" height="30" viewBox="0 0 30 30" fill="none" xmlns="http://www.w3.org/2000/svg">
<path d="M23.5489 21.3352C27.1057 21.3352 30 18.441 30 14.8841C30 11.3273 27.1058 8.43307 23.5489 8.43307C23.0415 8.43307 22.5476 8.49219 22.0735 8.60303C22.0957 8.5279 22.1178 8.45154 22.1388 8.37642C22.5132 7.03891 22.305 5.72111 21.539 4.56335L20.2778 2.65807C19.9687 2.19129 19.6066 1.78612 19.2014 1.45359C18.5893 0.951084 17.8602 0.601337 17.0363 0.412891C14.631 -0.13763 12.0655 -0.13763 9.66018 0.412891C8.83624 0.601325 8.10714 0.952314 7.49505 1.45359C7.08984 1.78612 6.72777 2.19129 6.41863 2.65807L5.15749 4.56335C4.39144 5.72105 4.18331 7.04008 4.55772 8.37642C5.67846 12.3815 7.6059 16.1823 10.1749 19.4817C7.35821 22.1912 3.94417 24.3021 0.277709 25.5977C0.102823 25.6592 -0.0092516 25.828 0.000601088 26.0127C0.0104538 26.1974 0.141001 26.3526 0.320806 26.3957L3.22736 27.0805L2.93671 28.9722C2.91454 29.1212 2.97366 29.2702 3.09189 29.3638C3.16579 29.4217 3.25693 29.4525 3.3493 29.4525C3.40349 29.4525 3.45767 29.4414 3.5094 29.4205C7.16609 27.8958 10.4741 25.7332 13.3485 22.9893C16.2058 25.7099 19.5631 27.9106 23.1851 29.4205C23.2369 29.4414 23.2911 29.4525 23.3452 29.4525C23.4364 29.4525 23.5275 29.4217 23.6026 29.3638C23.7209 29.2715 23.78 29.1212 23.7578 28.9722L23.4672 27.0805L26.3737 26.3957C26.5535 26.3538 26.6841 26.1974 26.6939 26.0127C26.7038 25.828 26.5917 25.6592 26.4168 25.5977C22.6432 24.2651 19.2907 22.1579 16.5175 19.489C16.9547 18.9286 17.3759 18.351 17.7762 17.7623C18.8353 19.8794 21.0254 21.3352 23.5489 21.3352ZM29.1661 14.8841C29.1661 17.9816 26.6462 20.5013 23.5489 20.5013C20.4515 20.5013 17.9318 17.9814 17.9318 14.8841C17.9318 11.7868 20.4516 9.267 23.5489 9.267C26.6464 9.267 29.1661 11.7868 29.1661 14.8841ZM8.83863 6.04762C10.2623 5.42937 11.7772 5.11655 13.3475 5.11655C14.9179 5.11655 16.4327 5.42937 17.8564 6.04762C17.0214 9.56747 15.4955 12.8928 13.3441 15.8461C11.2307 12.9395 9.68517 9.61539 8.83895 6.04762H8.83863ZM9.84483 1.22721C12.1282 0.705032 14.5656 0.705032 16.8502 1.22721C17.4721 1.37007 18.0276 1.61886 18.503 1.96986C18.4131 3.06722 18.2579 4.15224 18.0386 5.22109C16.5534 4.59913 14.9769 4.28384 13.3462 4.28384C11.7156 4.28384 10.1404 4.60036 8.65384 5.22109C8.43585 4.15577 8.28067 3.07075 8.18952 1.96986C8.66614 1.62009 9.22035 1.3701 9.84231 1.22721H9.84483ZM3.87395 28.3554L4.10795 26.827C4.1412 26.6127 4.00326 26.4082 3.79143 26.3577L1.83073 25.8959C5.09804 24.5559 8.13393 22.5841 10.6944 20.1347C10.953 20.4487 11.2165 20.7591 11.4863 21.062C11.8939 21.5214 12.3164 21.9697 12.7499 22.4045C10.1364 24.8947 7.15481 26.8935 3.87268 28.3542L3.87395 28.3554ZM22.9008 26.3577C22.689 26.407 22.5511 26.6115 22.5843 26.827L22.8183 28.3554C14.3535 24.5792 7.85326 17.0789 5.35683 8.15376C5.04524 7.04165 5.2115 5.98863 5.84823 5.02429L7.10938 3.11902C7.20667 2.97123 7.31013 2.83206 7.41974 2.69906C7.97149 7.90979 9.95063 12.8361 13.1699 16.9979C16.2378 20.9611 20.2576 24.0181 24.8576 25.8975L22.8994 26.3593L22.9008 26.3577ZM15.9201 18.8981C15.1898 18.1517 14.505 17.3647 13.8646 16.5408C16.8795 12.479 18.7379 7.71658 19.2702 2.69912C19.3798 2.8309 19.4832 2.9713 19.5805 3.11908L20.8417 5.02436C21.4796 5.98746 21.6447 7.04045 21.3331 8.15382C21.2629 8.4063 21.1865 8.66001 21.1089 8.91246C18.7566 9.87557 17.0953 12.1899 17.0953 14.8843C17.0953 15.5617 17.2 16.2144 17.3946 16.8278C16.9328 17.5347 16.4376 18.2281 15.9192 18.898L15.9201 18.8981ZM19.4302 13.6662V16.1035C19.4302 16.3338 19.6174 16.5198 19.8464 16.5198H21.9118V18.5852C21.9118 18.8155 22.099 19.0015 22.3281 19.0015H24.7654C24.9957 19.0015 25.1817 18.8143 25.1817 18.5852V16.5198H27.247C27.4774 16.5198 27.6633 16.3326 27.6633 16.1035V13.6662C27.6633 13.4359 27.4761 13.2499 27.247 13.2499H25.1817V11.1846C25.1817 10.9543 24.9945 10.7683 24.7654 10.7683H22.3281C22.0978 10.7683 21.9118 10.9555 21.9118 11.1846V13.2499H19.8464C19.6161 13.2499 19.4302 13.4371 19.4302 13.6662ZM20.2639 14.0825H22.3293C22.5596 14.0825 22.7456 13.8953 22.7456 13.6662V11.6008H24.3491V13.6662C24.3491 13.8965 24.5363 14.0825 24.7654 14.0825H26.8307V15.686H24.7654C24.5351 15.686 24.3491 15.8732 24.3491 16.1023V18.1677H22.7456V16.1023C22.7456 15.872 22.5584 15.686 22.3293 15.686H20.2639V14.0825Z" fill="#082F2F"/>
</svg>
