<svg width="16" height="16" viewBox="0 0 16 16" fill="none" xmlns="http://www.w3.org/2000/svg">
<path d="M14.5251 11.7761V8.91297C14.5251 7.13437 13.1614 5.68689 11.4852 5.68689C9.80902 5.68689 8.4456 7.13437 8.4456 8.91297V12.3729C8.4456 13.5215 7.60043 14.4555 6.56136 14.4555C5.52229 14.4555 4.67711 13.5215 4.67711 12.3729V9.57958C6.46457 9.28168 7.8156 7.96743 7.8156 6.39485V1.74382C7.8156 0.782047 6.90987 3.55587e-06 5.7964 3.55587e-06H5.18441C5.0976 -0.000281463 5.01159 0.0165703 4.93131 0.0495928C4.85103 0.0826153 4.77805 0.131159 4.71657 0.192441C4.65509 0.253723 4.6063 0.326538 4.57302 0.406711C4.53973 0.486884 4.5226 0.572839 4.5226 0.659647C4.5226 0.746455 4.53973 0.83241 4.57302 0.912583C4.6063 0.992756 4.65509 1.06557 4.71657 1.12685C4.77805 1.18813 4.85103 1.23668 4.93131 1.2697C5.01159 1.30272 5.0976 1.31958 5.18441 1.31929H5.79639C6.19707 1.31929 6.4963 1.54347 6.4963 1.74381V6.39485C6.4963 7.4584 5.33515 8.32418 3.90796 8.32418C2.48044 8.32418 1.3193 7.4584 1.3193 6.39485V1.74382C1.3193 1.54348 1.61885 1.3193 2.01953 1.3193H2.45789C2.5447 1.31959 2.63071 1.30274 2.71099 1.26972C2.79128 1.23669 2.86425 1.18815 2.92573 1.12687C2.98722 1.06559 3.036 0.99277 3.06929 0.912597C3.10257 0.832424 3.11971 0.746469 3.11971 0.659661C3.11971 0.572853 3.10257 0.486898 3.06929 0.406725C3.036 0.326552 2.98722 0.253737 2.92573 0.192455C2.86425 0.131173 2.79128 0.0826296 2.71099 0.0496071C2.63071 0.0165846 2.5447 -0.000267221 2.45789 1.77974e-05H2.01952C0.906048 1.06863e-05 0 0.782052 0 1.74382V6.39485C0 8.03072 1.46327 9.384 3.35782 9.60744V12.3729C3.35782 14.2488 4.795 15.7748 6.56136 15.7748C8.32772 15.7748 9.7649 14.2488 9.7649 12.3729V8.91297C9.7649 7.86166 10.5366 7.00618 11.4852 7.00618C12.4341 7.00618 13.2058 7.86166 13.2058 8.91297V11.7761C12.7225 11.9332 12.311 12.2575 12.0455 12.6909C11.7799 13.1242 11.6777 13.6381 11.7572 14.1401C11.8367 14.6421 12.0927 15.0992 12.4792 15.4293C12.8657 15.7593 13.3572 15.9407 13.8655 15.9407C14.3737 15.9407 14.8653 15.7593 15.2517 15.4293C15.6382 15.0992 15.8942 14.6421 15.9737 14.1401C16.0532 13.6381 15.951 13.1242 15.6855 12.6909C15.4199 12.2575 15.0085 11.9332 14.5251 11.7761ZM13.9713 15.1867C13.8838 15.1867 13.7999 15.1519 13.7381 15.0901C13.6762 15.0282 13.6414 14.9443 13.6414 14.8568C13.6414 14.7694 13.6762 14.6855 13.7381 14.6236C13.7999 14.5618 13.8838 14.527 13.9713 14.527C14.1783 14.5267 14.3768 14.4442 14.5232 14.2977C14.6695 14.1511 14.7517 13.9525 14.7517 13.7455C14.7517 13.5384 14.6695 13.3398 14.5232 13.1932C14.3768 13.0467 14.1783 12.9642 13.9713 12.9639C13.8838 12.9639 13.7999 12.9291 13.7381 12.8673C13.6762 12.8054 13.6414 12.7215 13.6414 12.6341C13.6414 12.5466 13.6762 12.4627 13.7381 12.4009C13.7999 12.339 13.8838 12.3042 13.9713 12.3042C14.3535 12.3042 14.7201 12.4561 14.9904 12.7264C15.2606 12.9966 15.4125 13.3632 15.4125 13.7455C15.4125 14.1277 15.2606 14.4943 14.9904 14.7645C14.7201 15.0348 14.3535 15.1867 13.9713 15.1867Z" fill="#082F2F"/>
</svg>
