<svg width="31" height="27" viewBox="0 0 31 27" fill="none" xmlns="http://www.w3.org/2000/svg">
<path d="M20.9356 12.5152L20.7205 9.29767C20.6316 7.91689 20.0595 6.64648 19.1146 5.71879C17.5948 4.22902 15.5171 3.48344 13.0926 3.52786C12.9951 3.33859 12.8818 3.1565 12.7341 2.99734C12.3355 2.56431 11.7949 2.30766 11.2185 2.24456C10.9991 1.59218 10.5002 1.0559 9.84347 0.797813C9.34161 0.605677 8.78672 0.591339 8.28201 0.754797L7.40594 1.0344L6.53273 0.754797C6.02658 0.591339 5.47169 0.605677 4.96554 0.799244C4.31026 1.05734 3.80988 1.5979 3.59334 2.24456C3.02124 2.30765 2.47637 2.56431 2.0792 2.99591C1.67341 3.43609 1.44976 4.0082 1.44976 4.60611V4.7581C1.44976 4.97748 1.49134 5.19255 1.55013 5.40046C1.13718 5.59116 0.711314 5.86502 0.398758 6.49736C0.0589368 7.18417 0.048901 8.05739 0.36578 9.0195C0.451812 9.29336 0.638211 9.52851 0.846121 9.72925C0.524939 10.1236 0.337112 10.6154 0.337112 11.1301V11.5775C0.337112 11.9388 0.426011 12.2987 0.595202 12.6185L0.830351 13.0629C1.06263 13.5017 1.42683 13.8372 1.85123 14.0408C1.37662 15.1607 1.67057 16.4583 2.61979 17.181C2.63987 17.1967 2.66281 17.2111 2.68575 17.224C2.90083 17.3788 3.13313 17.495 3.37686 17.5867C3.73245 18.5216 4.22713 19.3833 4.85514 20.1447C5.43727 20.8516 6.18575 21.3736 7.0231 21.6947V25.7941C7.0231 26.111 7.27976 26.3677 7.59664 26.3677C7.91352 26.3677 8.17017 26.111 8.17017 25.7941V22.0717L10.2708 22.7084C10.3267 22.7256 10.3826 22.7327 10.4371 22.7327C10.6837 22.7327 10.9103 22.5721 10.9863 22.3255C11.078 22.023 10.9074 21.7018 10.6034 21.61L7.7257 20.7383C6.94999 20.5074 6.26317 20.0514 5.74128 19.4162C5.32976 18.9172 4.98564 18.3695 4.70605 17.7831H4.71752C5.65812 17.7831 6.57721 17.5379 7.40597 17.0963C8.23473 17.5379 9.15382 17.7831 10.0944 17.7831H10.397C11.0235 17.7831 11.62 17.5895 12.1262 17.2239C12.1491 17.211 12.1692 17.1967 12.1907 17.1823C13.1399 16.4596 13.4338 15.1606 12.9593 14.0408C13.3837 13.8386 13.7493 13.5002 13.9845 13.0586L14.2124 12.6198C14.3831 12.3015 14.4734 11.9416 14.4734 11.5789L14.472 11.1286C14.472 10.6153 14.2856 10.1263 13.973 9.7392C14.2067 9.50405 14.3716 9.25027 14.4447 9.02944C14.7645 8.06304 14.753 7.18839 14.4146 6.50015C14.1021 5.86781 13.6762 5.59251 13.2618 5.40039C13.3206 5.19248 13.3622 4.97742 13.3622 4.75802V4.66769C15.3839 4.67773 17.0486 5.30003 18.3102 6.53745C19.0544 7.26585 19.5032 8.27241 19.5749 9.37218L19.8029 12.7704C19.81 12.8865 19.8545 12.9984 19.9276 13.0901L22.3121 16.0754L20.0896 17.6168C19.9362 17.7243 19.843 17.9007 19.843 18.0885V19.0421H16.4606C16.1437 19.0421 15.887 19.2987 15.887 19.6156C15.887 19.9325 16.1437 20.1891 16.4606 20.1891H19.843V20.453C19.843 21.3061 19.1519 21.9986 18.3031 21.9986H15.4755C15.1586 21.9986 14.902 22.2553 14.902 22.5722V26.0263C14.902 26.3432 15.1586 26.5999 15.4755 26.5999C15.7924 26.5999 16.0491 26.3432 16.0491 26.0263V23.1457H18.3031C19.7842 23.1457 20.9901 21.937 20.9901 20.453V19.6256C20.9901 19.6213 20.9929 19.6185 20.9929 19.6142C20.9929 19.6099 20.9901 19.607 20.9901 19.6027V18.3868L23.4692 16.6662C23.5997 16.5758 23.6871 16.4353 23.7101 16.2776C23.733 16.1199 23.69 15.9607 23.5911 15.8374L20.9356 12.5152ZM4.41476 16.6348C4.02189 16.6348 3.6491 16.51 3.33365 16.2763C3.31644 16.2634 3.29923 16.2519 3.28059 16.2419C2.73715 15.7974 2.60956 14.9515 2.99526 14.2933L3.0268 14.2403C3.03254 14.2403 3.03828 14.2403 3.04401 14.2388C3.57453 14.17 4.06489 13.9678 4.50368 13.6366C4.75604 13.4459 4.80622 13.086 4.61552 12.8337C4.42482 12.5813 4.06492 12.5297 3.81257 12.7218C3.53154 12.934 3.23187 13.0588 2.89634 13.1018C2.4791 13.1563 2.05609 12.9254 1.84389 12.5268L1.60874 12.0824C1.52701 11.9275 1.48256 11.7526 1.48256 11.5762V11.1288C1.48256 10.8292 1.60874 10.5395 1.82955 10.3359L1.93853 10.2341C2.16507 10.0248 2.4762 9.92152 2.78164 9.9459C3.09852 9.97888 3.37525 9.73942 3.40249 9.42397C3.42973 9.10852 3.19602 8.83035 2.88056 8.80312C2.49055 8.7687 2.10627 8.849 1.75786 9.00815C1.52127 8.81315 1.46822 8.70418 1.45531 8.66547C1.2345 7.99873 1.22446 7.40941 1.4252 7.00365C1.5944 6.65953 1.79943 6.5391 2.12204 6.39858C2.15932 6.4373 2.18943 6.48318 2.22958 6.52046C2.67263 6.92625 3.24473 7.1528 3.84121 7.1571H3.84408C4.15953 7.1571 4.41476 6.90331 4.41762 6.58785C4.42049 6.27097 4.16383 6.01288 3.84838 6.01002C3.53723 6.00859 3.23754 5.88958 2.99238 5.66446C2.73859 5.43218 2.59235 5.10094 2.59235 4.75682V4.60483C2.59235 4.29512 2.70706 3.99833 2.91784 3.77035C3.16876 3.49792 3.52291 3.3574 3.89283 3.36313C4.23696 3.37603 4.54092 3.52515 4.74597 3.78466L5.22487 3.46635L5.64498 3.07205C5.41126 2.77811 5.10584 2.56018 4.76604 2.4139C4.90083 2.17015 5.11017 1.97085 5.37255 1.86617C5.63064 1.76867 5.91598 1.76006 6.1755 1.84323L6.82645 2.05113V7.19445C6.81928 7.33209 6.6673 9.35095 4.61977 9.38105C4.30289 9.38535 4.05053 9.64631 4.05482 9.96318C4.05912 10.2772 4.31578 10.5281 4.62836 10.5281H4.63696C5.6091 10.5138 6.31742 10.184 6.82643 9.72374V16.103C6.17261 16.4456 5.45137 16.6349 4.71151 16.6349L4.41476 16.6348ZM13.3851 7.00778C13.5858 7.415 13.5744 8.00575 13.355 8.67102C13.2991 8.84452 12.6553 9.59441 11.6802 9.32774C11.3777 9.24457 11.0594 9.42381 10.9762 9.73066C10.8931 10.0361 11.0737 10.3515 11.3791 10.4347C11.6272 10.5021 11.8681 10.5336 12.0975 10.5336C12.4258 10.5336 12.7284 10.4691 13.0037 10.3659C13.2073 10.5637 13.3263 10.8405 13.3263 11.1301V11.5803C13.3263 11.7538 13.2833 11.9273 13.1987 12.0865L12.9707 12.5267C12.7585 12.9253 12.3327 13.1547 11.9154 13.1016C11.5828 13.0601 11.2845 12.9367 11.002 12.7231C10.7497 12.531 10.3898 12.5826 10.1991 12.8364C10.0084 13.0888 10.0586 13.4487 10.3124 13.6393C10.7525 13.972 11.2444 14.1742 11.7692 14.2387C11.7735 14.2387 11.7792 14.2387 11.7835 14.2401L11.8165 14.296C12.2022 14.9542 12.0746 15.8016 11.5297 16.2446C11.5125 16.2547 11.4953 16.2662 11.4795 16.2776C11.1641 16.5128 10.7913 16.6361 10.3984 16.6361H10.0959C9.35602 16.6361 8.63477 16.4468 7.98096 16.1041V10.604C7.98096 10.4678 8.24765 10.2613 8.65055 10.2613C9.05205 10.2613 9.31872 10.4678 9.31872 10.604V11.526C9.31872 11.8429 9.57538 12.0995 9.89226 12.0995C10.2091 12.0995 10.4658 11.8429 10.4658 11.526V10.604C10.4658 9.76812 9.66857 9.11427 8.65055 9.11427C8.41253 9.11427 8.18743 9.15298 7.98096 9.21894L7.97952 2.05384L8.63191 1.84449C8.89 1.7599 9.17535 1.76994 9.4277 1.866C9.69297 1.97067 9.90232 2.16998 10.0385 2.4166C9.69871 2.56285 9.39474 2.7808 9.16103 3.07475C9.1596 3.07618 9.12948 3.1149 9.12805 3.11633C8.93591 3.36582 8.9947 3.70565 9.24276 3.8992C9.48938 4.09277 9.86361 4.03255 10.0601 3.78593C10.268 3.5264 10.5705 3.37585 10.9146 3.36296C11.2817 3.35723 11.6402 3.49774 11.8911 3.77018C12.1004 3.99816 12.2166 4.29498 12.2166 4.60467V4.75665C12.2166 5.10078 12.0703 5.43055 11.8036 5.67575C11.3606 6.08297 10.691 6.12166 10.2135 5.74027C9.96545 5.54383 9.62132 5.59832 9.42347 5.84637C9.22703 6.09443 9.28439 6.46723 9.53245 6.66368C9.94253 6.98916 10.443 7.14975 10.9491 7.14975C11.5356 7.14975 12.1277 6.93324 12.5937 6.50595C12.6296 6.47297 12.6568 6.43283 12.6898 6.39698C13.011 6.54037 13.2159 6.66364 13.3851 7.00778Z" fill="#082F2F"/>
<path d="M29.8241 4.18903C29.186 3.86068 28.4676 3.84921 27.745 4.15892C26.8459 4.5432 26.7155 5.34758 26.6208 5.93401C26.5147 6.58496 26.4488 6.95489 25.6888 7.12553V4.02842H26.3283C26.6452 4.02842 26.9018 3.77177 26.9018 3.45489C26.9018 3.13801 26.6452 2.88135 26.3283 2.88135H23.9022C23.5854 2.88135 23.3287 3.13801 23.3287 3.45489C23.3287 3.77177 23.5854 4.02842 23.9022 4.02842H24.5417V7.12553C23.7818 6.95491 23.7158 6.58496 23.6097 5.93401C23.5151 5.34611 23.3832 4.54173 22.4856 4.15892C21.7629 3.84921 21.0431 3.85924 20.4051 4.18903C20.124 4.33385 20.0136 4.68082 20.1584 4.96188C20.3033 5.24291 20.6502 5.35332 20.9313 5.20851C21.2639 5.03788 21.6253 5.03788 22.0353 5.21424C22.3279 5.33898 22.3852 5.54976 22.4784 6.11898C22.5988 6.85598 22.7795 7.96866 24.4313 8.27692C24.4657 8.28265 24.5001 8.28696 24.536 8.28696H24.5417V10.1137H23.9022C23.5853 10.1137 23.3287 10.3703 23.3287 10.6872C23.3287 11.0041 23.5853 11.2608 23.9022 11.2608H26.3283C26.6452 11.2608 26.9018 11.0041 26.9018 10.6872C26.9018 10.3703 26.6452 10.1137 26.3283 10.1137H25.6888V8.28696H25.6945C25.7304 8.28696 25.7648 8.28409 25.7992 8.27692C27.451 7.97007 27.6316 6.85598 27.7521 6.11898C27.8453 5.54974 27.9026 5.33897 28.1966 5.21424C28.6052 5.03788 28.9651 5.03644 29.2992 5.20851C29.5802 5.35476 29.9272 5.24292 30.072 4.96188C30.2169 4.68085 30.1065 4.33387 29.8241 4.18903Z" fill="#082F2F"/>
</svg>
