<svg width="30" height="28" viewBox="0 0 30 28" fill="none" xmlns="http://www.w3.org/2000/svg">
<path fill-rule="evenodd" clip-rule="evenodd" d="M3.21647 16.1354H0.937668V26.5497H3.21647C3.67354 26.5497 4.04914 26.1741 4.04914 25.7171V16.968C4.04914 16.511 3.67354 16.1354 3.21647 16.1354ZM15.8049 0.105015C17.034 1.06728 18.0314 2.30355 18.7075 3.72262C20.0006 2.83302 21.4892 2.25609 23.0395 2.03829C23.2511 2.00882 23.4558 2.12795 23.5353 2.32622C24.1225 3.78529 24.3676 5.34829 24.2426 6.91836C24.2753 6.91576 24.308 6.91329 24.3406 6.91096C25.874 6.80429 27.4078 7.05156 28.8212 7.6203C29.0231 7.6937 29.1535 7.90023 29.1229 8.12156C28.4628 12.8562 24.5655 16.468 19.8315 16.7974C18.3556 16.9001 16.8794 16.6748 15.5104 16.1507C14.1415 16.6748 12.6652 16.9001 11.1894 16.7974C6.45534 16.468 2.558 12.8562 1.898 8.12156C1.8674 7.90023 1.9978 7.6937 2.1996 7.6203C3.64614 7.03829 5.22368 6.79509 6.77821 6.91836C6.65321 5.34836 6.89828 3.78529 7.48548 2.32622C7.56668 2.12362 7.77441 2.00942 7.98128 2.03822C9.53322 2.25629 11.022 2.83429 12.3133 3.72262C12.9908 2.30062 13.9914 1.06142 15.2242 0.0984822C15.3989 -0.0378514 15.6404 -0.0297847 15.8049 0.105015ZM7.72415 7.03896C9.00602 7.26483 10.2436 7.74383 11.3442 8.43616C11.295 7.09996 11.5068 5.80276 11.9452 4.60049C10.8347 3.80096 9.56088 3.26282 8.21761 3.01922C7.75955 4.29996 7.58781 5.68209 7.72415 7.03896ZM14.5945 15.4824C9.34548 17.097 3.86214 13.77 2.87907 8.3579C5.64374 7.36843 8.67468 7.75583 11.0966 9.38476C11.2159 9.46496 11.3375 9.55163 11.4614 9.64443C11.5118 9.72797 11.7574 12.8691 14.5945 15.4824ZM19.0756 4.60049C19.514 5.80276 19.7258 7.09989 19.6766 8.43616C20.7775 7.7439 22.0146 7.26489 23.2966 7.03896C23.433 5.68209 23.2613 4.29996 22.8032 3.01922C21.46 3.26282 20.186 3.80096 19.0756 4.60049ZM19.5595 9.64437C19.2032 11.8999 18.0924 13.9478 16.4265 15.4824C21.6755 17.0969 27.1588 13.7699 28.1418 8.3579C25.2317 7.31629 22.0112 7.8069 19.5595 9.64437ZM17.8268 4.04342C17.2659 2.89455 16.4733 1.88109 15.5104 1.06442C11.1926 4.72656 11.1926 11.389 15.5104 15.0512C18.7013 12.3448 19.6658 7.81063 17.8268 4.04342ZM4.98681 18.6761V24.2901C7.66601 24.7182 9.80608 26.5451 11.64 26.5503L20.1282 26.5745L28.4382 21.7767C29.8449 20.9646 28.6175 18.827 27.2056 19.6422L20.3545 23.5977C20.283 23.6422 20.1986 23.6679 20.1083 23.6679L13.2028 23.6641C12.9449 23.6641 12.7358 23.455 12.7358 23.1971C12.7358 22.9391 12.9449 22.7301 13.2028 22.7301L19.3402 22.7335C18.7972 20.0842 14.3194 20.8702 12.0232 20.7967C11.8902 20.7924 11.7663 20.7325 11.6807 20.6306C10.8451 19.6392 9.97788 19.142 8.89402 18.8994C7.85628 18.6672 6.59681 18.6564 4.98681 18.6761ZM0.468801 15.1977H3.21641C4.19101 15.1977 4.98674 15.9934 4.98674 16.968V17.742C6.65381 17.7217 7.96368 17.7341 9.09542 17.9874C10.3224 18.2621 11.3126 18.8074 12.2542 19.8673C12.621 19.8706 13.0483 19.8554 13.5054 19.8391C16.155 19.7449 19.7272 19.6184 20.2632 22.5724L26.7372 18.8336C28.1474 18.0194 29.7566 18.9163 29.9777 20.4689C30.0882 21.2455 29.7978 22.0697 28.9034 22.5861L20.4848 27.4466C20.4114 27.4888 20.3313 27.5088 20.2522 27.5087L11.6399 27.4843C9.52242 27.4783 7.48081 25.6979 4.98674 25.2394V25.7171C4.98674 26.6917 4.19101 27.4874 3.21641 27.4874H0.468801C0.209867 27.4874 0 27.2775 0 27.0185V15.6665C0 15.4076 0.209934 15.1977 0.468801 15.1977Z" fill="#082F2F"/>
</svg>
